<svg xmlns="http://www.w3.org/2000/svg" viewBox="0 0 416.65 421.32"><defs><style>.cls-1{fill:#ad775e;}.cls-1,.cls-4,.cls-5,.cls-6,.cls-7{stroke:#000;}.cls-1,.cls-4,.cls-5,.cls-6,.cls-7,.cls-8{stroke-miterlimit:10;}.cls-1,.cls-6,.cls-7{stroke-width:0.15px;}.cls-2{fill:#7b55a1;}.cls-3{fill:#7b62a1;}.cls-4{fill:#b7755c;}.cls-4,.cls-5{stroke-width:0.25px;}.cls-5,.cls-8{fill:none;}.cls-6,.cls-9{fill:#b2004c;}.cls-7{fill:#d6004b;}.cls-8{stroke:#303030;}.cls-9{opacity:0.09;}</style></defs><title>cardi</title><g id="Cardi"><path class="cls-1" d="M140.69,254.71l10,54.09-10,16s19,2.85,23.85,8.1c8.49,9.22,43.7,27.3,43.7,27.3l23.7,5.66,26.15-18,16.31-38.29-7.1-54.86s-18,45.25-34.42,46.8c-12.69,1.2,4.91-.3-26.16,3.05S140.69,254.71,140.69,254.71Z"/><path class="cls-2" d="M144.8,278l-25.44,53s22,14.27,38.85,27.72,26.69,16.92,44.08,16.92,34.37,3.4,51.68-4.1,28.9-29,28.9-29l-12.34-51.33L250.14,335l-10.88,7.91s-21.18,8.05-42.48,2.23S172.39,327,161.56,319.8,144.8,278,144.8,278Z"/><path class="cls-3" d="M24.58,368.5C7.68,382,0,421.32,0,421.32H416.65s.76-35.41-4.45-44.9S393.32,353,393.32,353"/><path class="cls-3" d="M122,328.44s-22,9.34-35.95,16.3-23.19,16.59-30.15,16.12-19.71-1.63-25.51,3l-5.8,4.64-4.15,50.42,372.89-4.62V353s-20.87-5.34-29-5.34-25.74-6-35.37-9c-12.31-3.76-30.06-10.2-30.06-10.2L268.8,352.91s-6.72,19.62-32.88,20.77-20.06-1.79-45.5-5.16S162.84,352.27,151,347.63,122,328.44,122,328.44Z"/><path class="cls-4" d="M127.91,203.14s1.1,23.12,7.71,40.18,16,40.48,18.16,43.48c3.12,4.33,22.19,18.49,28.8,22s22.25,16,36.63,8.81a64,64,0,0,0,22.3-18.71s16.84-19.51,21.24-24.89,9.36-22.44,11-27.95,3.3-36.32,3.3-39.63V166.26L198.22,163l-60.41,2.75-12.66,1.65Z"/><path d="M223.7,199.27a11.56,11.56,0,0,1,4.5-6c3.69-2.66,2.79-2.55,7-4.67s5.11-1.42,8.36-1.42,6.26,1.87,7.15,2.31,6.43,4.55,6.43,4.55a9.76,9.76,0,0,1-3.48,3.87c-2.51,1.62-6.8,3.1-9,3.1H236Z"/><path d="M153.53,192.13s7,6.41,12.3,7.27a43.42,43.42,0,0,0,9.1.87,50,50,0,0,0,8.09-.75c2.24-.4,4.89-1.38,4.89-1.66s-2.5-2.67-3.91-4.33-2.15-2.86-4.33-4.33a19.51,19.51,0,0,0-7.69-2.8c-2.24-.14-6.15-.7-8,0a52.39,52.39,0,0,0-6.15,2.8C156.75,189.9,153.53,192.13,153.53,192.13Z"/><path d="M223.7,192.87s4.32-5.45,7.33-7,3.79-2,7-2.63c3.06-.58,5.34-.94,8.57,0a27,27,0,0,1,6.91,3.06c3.14,1.77,4.34,3.73,5.66,3.73s6.76.8,6.76.8l-6.63,1.82a1.31,1.31,0,0,1-1,0c-1.17-.51-2.49-1.79-4.15-2.83-1.93-1.2-6.84-4.29-10.5-4.29s-7.56.55-9.49,1.55S223.7,192.87,223.7,192.87Z"/><path d="M185.7,191.44s-4.09-5.15-6.93-6.58-3.58-1.91-6.65-2.49c-2.9-.55-5.05-.89-8.11,0a25.55,25.55,0,0,0-6.54,2.89c-3,1.67-4.11,3.53-5.35,3.53s-6.39.76-6.39.76l6.27,1.72a1.24,1.24,0,0,0,.9,0c1.11-.48,2.36-1.7,3.93-2.68,1.82-1.14,6.47-4.06,9.94-4.06s7.15.52,9,1.46S185.7,191.44,185.7,191.44Z"/><path class="cls-5" d="M187.91,229.82s-5.35,2.19-5.35,6.63-.53,5.26,2.86,7.36c3.8,2.35,7.71-2.53,10.3-.68s-1.48-1.11,2.59,1.85,6.83,5.84,12.27,4.33c3.86-1.07,5.86-8,9.17-6.18,4,2.15,9.36-1.52,8.62-6-.38-2.28-2.71-7.34-2.71-7.34"/><path class="cls-5" d="M195.26,178.79s4.08,1.79,5.31,9.36,0,23.08,0,23.08l-1,8.77"/><path class="cls-5" d="M219.16,178.79s-4.08,1.79-5.31,9.36,0,23.08,0,23.08l1,8.77"/><path class="cls-6" d="M174.64,269.87s11-5.15,13.17-6.4,5.17-3.21,7.31-3.39a25.75,25.75,0,0,1,7.67,0,43.37,43.37,0,0,1,6.6,1.07s1.07.15,3.21-1.35a17.82,17.82,0,0,1,7.7-2.64c1.6,0,7.45,2,7.45,2s7.85,2.67,8.74,3.21a19,19,0,0,0,4,1.06l-14.32,4.88-11.93,2.3-19.51.8Z"/><path class="cls-7" d="M174.64,269.87s15.16,8.53,20.24,11.27,13.29,2.93,17,2.74,8.6-2,10.56-3.52,7.43-6.06,8-7,5.08-5.47,5.08-5.47l3.71-4-8.53,2.44a58.67,58.67,0,0,1-13.65,3.8c-7.92,1.17-23.38.62-25.92.62S174.64,269.87,174.64,269.87Z"/><path d="M129.63,170.29h27.72s-5.45-.49,10.83,0,15.78.54,32.92-.22,30.85.36,47.5.29,19.58-.13,19.58-.13,4.41,28.48,2.45,49.77-11.77,67.57-23.52,77.85-7.86,13-7.86,13l1.2,19.05,6.66,19.9s34.78,9,47-12.51,22.52-47,22.52-68.06-8.32-73.7-8.32-85.32-9.3-66-16.65-78.21-8.32-37.21-35.74-47-51.4-11.26-57.77-9.79S178.1,42,162.44,53.28s-26.58,9.3-37.28,22.52-25.39,45-27.35,56.79-13.22,69.52-14.2,80.79-8.32,47.08-6.36,60.51,7.83,30.56,11.26,38.88,19.42,25.38,19.42,25.38,29.47,5.76,37.31,6.74,17.69-9.11,17.69-9.11l-4.19-25.51.52-10.11-9.77-22.41-16.91-60Z"/><path class="cls-8" d="M129.63,170.29s-3.79-6.63-2.07-16.5l1.72-9.87"/><path class="cls-8" d="M267.86,144.37c-1.72-3,3.26,9.64,2.06,16.51l-1.72,9.87"/><path class="cls-8" d="M182.53,80.72c-4.94-10.77-44.23-1.79-54.51,11.91a44.52,44.52,0,0,0-6.86,13.43A288.58,288.58,0,0,0,108,186.49c-.31,15,.55,29.94,1.42,44.89l2,35.24c.5,8.61,2,18.84,9.79,22.57"/><path class="cls-8" d="M95,212.5c-1.41,27.93-2.77,56.4,4.48,83.4,2.61,9.73,9.49,11.12,15.72,19s25.63,13.49,35.6,14.93"/><path class="cls-8" d="M119.18,175.28c-.67,24.26-1.33,48.69,2.37,72.68,1.68,10.92,4.61,22.33,12.51,30"/><path class="cls-8" d="M190.43,100.61c-4.69-6.18-22-15.34-46.31-7.18-1.58.53-4.43,2.69-6,3.32a11.56,11.56,0,0,0-4.42,3.91c-10.3,13.33-17.27,58-14.54,74.62"/><path class="cls-8" d="M204.74,88.46c11.56-3.71,24.53,2.39,32.69,5.83,12.76,5.37,16.86,11.73,23.2,25.34,3.49,7.5,9.57,13.61,12.59,21.31,4.13,10.52,4.82,22,7.4,33,1.82,7.79,4.6,15.32,6.42,23.11a98.72,98.72,0,0,1-17,80.67"/><path class="cls-8" d="M209.25,72.23c8.8-4.1,35.77.42,43.81,5.88S267,91.58,272.65,99.45c13.25,18.36,26.68,37.62,30.82,59.88,2,11,1.71,22.36,1,33.56-1,16.28-5.33,33.36-2.09,49.39A90.9,90.9,0,0,1,298,292.41c-6.12,16-17.73,30.43-33.39,37.45"/><path class="cls-8" d="M147.5,143.48a83.41,83.41,0,0,0-1.26,26.11"/><path class="cls-8" d="M164.94,138.32c-1,11.62-2.15,20.61,2.62,31.25"/><path class="cls-8" d="M189.16,142.53v28"/><path class="cls-8" d="M206.75,141.25v28.31"/><path class="cls-8" d="M230.83,140.69a46.65,46.65,0,0,1,4.26,30"/><path class="cls-8" d="M251.16,143.48c2.1,1.4,2.28,3.95,2.27,6.17l0,20.64"/><path class="cls-8" d="M203.61,100.83c9.8,1.61,20.3-2.2,29.57,1.37,3.6,1.38,6.7,3.79,9.7,6.21a349.62,349.62,0,0,1,27.87,25"/><path class="cls-8" d="M204.45,54.86c17,7,39.07,3.72,51.39,17.37,4.27,4.73,6.6,10.85,8.84,16.82l37.7,100.49"/><path class="cls-8" d="M188.55,58.11c-15-1.2-48.65,14.11-60.18,22.52-15.3,11.16-24.52,58.61-29.37,76.91S95.09,195.13,96.42,214"/><path class="cls-8" d="M284,284c-5.61,8.2-6.6,19.32-13.76,26.21-2.78,2.67-6.27,4.47-9.73,6.16"/><path class="cls-8" d="M122.3,143.45c6.79-7.25,6.07-17.82,14-25.4,2.79-2.66,7.49-7.44,11.17-8.59,11.92-3.73,30.11-11.79,39.21-3.72"/><path class="cls-9" d="M158.3,220.41c-22.48,0-22.52,27.9,0,27.9S180.82,220.41,158.3,220.41Z"/><path class="cls-9" d="M252.29,220.41c-22.48,0-22.52,27.9,0,27.9S274.81,220.41,252.29,220.41Z"/></g></svg>