<svg id="Nicki_Stuff" data-name="Nicki Stuff" xmlns="http://www.w3.org/2000/svg" viewBox="0 0 400 400"><defs><style>.cls-1{fill:#8e6c55;}.cls-1,.cls-11,.cls-2,.cls-3,.cls-4,.cls-5,.cls-6,.cls-8{stroke:#000;stroke-width:0.25px;}.cls-1,.cls-11,.cls-12,.cls-2,.cls-3,.cls-4,.cls-5,.cls-6,.cls-8,.cls-9{stroke-miterlimit:10;}.cls-2{fill:#96725a;}.cls-3{fill:#c97967;}.cls-4{fill:#ad665a;}.cls-5{fill:#3a1811;}.cls-12,.cls-6{fill:none;}.cls-7{fill:#87654d;}.cls-8{fill:#1e0d08;}.cls-9{fill:#35150e;stroke:#331510;}.cls-10{fill:#5e1a0f;}.cls-12{stroke:#2a0d06;stroke-width:0.75px;}</style></defs><title>nicki</title><path class="cls-1" d="M241.55,228c3.68-8.57,1.7,64.62,0,73.94s-.67,18.65,3.47,21.23,32.34,8.51,38.84,5.7,53.75.64,67.33,9.32,20.64,14.32,20.64,14.32,16.53,38.9,14,47.1-116.5,6.59-116.5,6.59l-238.21-.58s4.66-12.53,8.8-25.48S45.51,350.67,51,341.87s24.65-17.09,24.65-17.09L100,321.41l21.2-4.93,24.32-.52,2.14-36.38S223.69,269.68,241.55,228Z"/><path class="cls-2" d="M147.88,112.19s-9.47.4-15.43,5.16S120.14,131.63,118.16,140s-3.51,19.28-3.51,19.28-.89,8.93-.07,12.6a18.94,18.94,0,0,1,.07,12.95c-2.44,6.74-3.78,15.27-3.57,18.57.44,7.14,7.37,24.4,9.22,25.86,2.18,1.73,17.25,30.95,18.47,32.53s7.5,13.49,9.12,15.47,6.78,10.71,22.25,7.54,30.15-7,32.14-8.73c2.34-2.1,15.31-10.47,19.4-13.1a10.25,10.25,0,0,0,2.22-1.92c3.27-3.77,13.61-15.89,15.28-19.89,2-4.76,2.38-13.09,2.38-13.09L219.72,164l-9.2-22s-11.21-13.09-17.67-16.27S169.34,115,169.34,115Z"/><path class="cls-3" d="M148.79,246.44a20.65,20.65,0,0,0,8.6,1.48c5.24-.11,3.53.68,8.89-1.48s6-2.4,6-2.4l12.21-.57-6.76,8.45s-7.39,7.19-9.21,8.56a16.21,16.21,0,0,1-7.65,3.08c-2.51.11-8.33-.34-9.93-1.26s-5.14-5.25-5.14-5.25l-4.34-7.53-1.86-2.74Z"/><path class="cls-4" d="M148.57,244.26s1.29-2.72,3.48-3.46a31.82,31.82,0,0,1,5.34-1.08,38.43,38.43,0,0,1,7.35,0,19.8,19.8,0,0,1,5.42,2.17l3.11.9,11.28.68-12.49-6.53-10-4.1a9.24,9.24,0,0,0-4.71,0c-2,.73-6.12.15-7.29.44s-2.58,1.76-4.59,3.51-2.44,2.78-2.73,3.81-1.61,4.38-1.61,4.38l-1.65,1.67,9-.88Z"/><path d="M172.57,181.9s6.32-5.64,8.54-6.38,13-1,15.72,0l5.13,1.93s-6.15,3.86-8.37,4.45-5.64,2.08-13.33,1Z"/><path class="cls-5" d="M167.5,159.36s-2.13,3.73-1.17,4.89,3.76.58,3.76.58a44,44,0,0,0,4.43-2.22,62.61,62.61,0,0,1,6.75-3.37c1.06-.39,5.11-2.31,7.9-2.31s3.85-.77,7,0,10.89,3.85,10.89,3.85l4.34,1.64-2.89-3.57-7.23-4.72s-1.06-.58-3.37-1.54-3-1.7-6-1.16c-2.51.46-6.66,1.13-6.76,1.23Z"/><path d="M145.52,184.09s-3.18-4.63-6.66-5.65a29.15,29.15,0,0,0-8.11-1.07c-.87.06-6.37,3.35-6.37,3.35l-3.18,2.5s.58-.14,2.89.87,9.84,1.3,9.84,1.3Z"/><path class="cls-5" d="M139.41,166.94s1.06-3.7,0-4.6-6.94-2-6.94-2-8.6-1.66-9.51-1.66a7.94,7.94,0,0,0-4.23,1.66,10.55,10.55,0,0,0-2.11,3.32l3.77-1.51,4.53-.3,7.7,3.09Z"/><path class="cls-6" d="M141.7,211s-1.05.81-1.82,3.55.81,5.33.91,6,4.73,2.26,4.73,2.26l3.27-1.12"/><path class="cls-6" d="M157.39,218.06a6.59,6.59,0,0,0,3,1,5.1,5.1,0,0,0,2.91-1.46"/><path class="cls-6" d="M151.67,181.38s-3.39,12.29-3.6,14.84-.92,10.88-.92,10.88a17.09,17.09,0,0,0-2.22,4.9c-.38,2.11-.92,6.2,1.55,8.13s2.86,2,5.19,2,5.72-4,5.72-4a2.89,2.89,0,0,1,2.33-.85c1.7,0,2.33-.64,3.6.42s2.12,2.54,3.82,2.54a14.37,14.37,0,0,0,4.45-1.27l1.67-3.39"/><path class="cls-7" d="M228.17,194.06a238,238,0,0,1-16.84,17.52,13.91,13.91,0,0,0-4.39,8.41c-.18,2.58,1.53,4,3.73,1.94a263.25,263.25,0,0,0,18.92-19.5C234.73,196.57,233.31,188.19,228.17,194.06Z"/><path d="M154.63,299.44s7.78,6.2,36.35.39a151.32,151.32,0,0,0,48.9-19.36v12.65s-17.8,10.24-25.57,12.66-35.79,6.14-35.79,6.14-6.84,0-13,0-12.72-2.81-12.72-2.81Z"/><path class="cls-8" d="M152.54,115.27l22.1-44.17L182.32,66s14.85-4.48,21.85-3.84,22.27,5.09,26.73,8.91S255.71,92.41,260.17,104c5.59,14.58,20.35,45.82,24.82,72.67s5.09,44.35,10.18,57.84.64,16.67,13.37,38.95,31.19,41.37,34.37,47.1,24.19,25.19,28.64,35.37,10.82,35,10.82,35l3.18,12.09-73.19,6.64s-14.6-59.64-23.24-68.75c-10.09-10.64-52.44-57.35-46.66-98,2.55-17.89-18.79-58.85-18.79-58.85s-19.42-44.94-23.06-48.36-29.92-16.67-29.92-16.67Z"/><path class="cls-8" d="M156,115.74s-14.78.32-20.05,4.08c-1.48,1.05-16.75,20.41-18.75,32.62l1.53,32.41-4,20.18c-.07.38-1.22,5.22-.55,7.75,2,7.47,16.78,35.95,21.71,41.6l12.84,22.83a17.23,17.23,0,0,0,10.74,8.24h0L157.69,293,102.38,410.16,54.22,412.6s7.71-16.05,17.34-27,35.32-46.23,38.53-64.85,0-35.32-3.21-73.44-12.59-59.57-10.27-68.8c2.1-8.31,6.63-46.21,10.27-47.83l11.9-37.24s17.64-21.19,30-25.6,29.41,3.7,29.41,3.7"/><line class="cls-9" x1="176.3" y1="70.83" x2="154.2" y2="115.01"/><path d="M242.74,258s-.28,11.4-7,41.38c-8.27,36.74-21.2,79.65-21.2,79.65L200,406.29l105.84,1.94-22-82.67Z"/><path d="M154.52,298.37s-3.22,34.27,7.59,63.93,22.44,44,22.44,44l-80.76-.44Z"/><path class="cls-10" d="M174.38,174.9c1.23-.59,2.87-.72,3.85-1.38,2.17-1.47,5.76-2.08,9.26-3.15,5.38-1.64,3.59.39,7.7.11a30,30,0,0,1,10.66,1.32c2.85.85,2.91-4.23,2.91-4.23s-6-2.63-9.73-3.12c-4-.53-12.07-2.92-18.72,2.56s-7.59,4.73-7.59,7.23C172.72,175.12,172.72,175.7,174.38,174.9Z"/><path class="cls-11" d="M191.88,172.41l7.34,2.17s4.65-.58,7-2.17,7.21-6.7,7.21-6.7l-6.13,2L201,169.92s-2.69.06-4.67.06-5.73-.59-9-.42-6.58-.31-8.78,1.67-6.09,4.91-6.09,4.91l3.36-1.19,6.07-2,5.36-.9C188.75,172.07,191.78,172.38,191.88,172.41Z"/><path class="cls-10" d="M118,182.82a2,2,0,0,0,2.91-.38c.76-1.53,2.87-4.85,6-5.38a31.82,31.82,0,0,1,9.87-.35A20.88,20.88,0,0,1,145,179c2.31,1.11,3.29-1.67,3.29-1.67s-4.11-4.72-7.21-5.61c-3.32-1-9.26-4.35-15.6-.25s-7.89,7.3-8.21,9.53A2,2,0,0,0,118,182.82Z"/><path class="cls-11" d="M143.21,179.12l5,1.19s-11.38-7-15-7-7.73,2.41-8.72,2.48-5.46.72-5.46.72l-4.39-.36,6.15,2.87,3.63-.36s5.8-2.37,8.4-2.33,2.31-.06,5.22,1S143.21,179.12,143.21,179.12Z"/><path class="cls-12" d="M166.28,107.57c24.31-1.62,51.89,3.23,65.9,23.17,4.86,6.92,7.62,15.06,10.32,23.08L258,199.94c4.73,14.05,9.49,28.31,10.41,43.11,1,15.61-2.3,32,3.58,46.47,6.36,15.65,21.78,25.27,33.76,37.18a103.59,103.59,0,0,1,30.06,66.17"/><path class="cls-12" d="M180.7,93.4c24.31-1.62,51.89,3.23,65.9,23.17,4.86,6.92,7.62,15.06,10.32,23.08l15.51,46.12c4.73,14.05,9.49,28.31,10.41,43.11,1,15.61-2.3,32,3.58,46.47,6.36,15.65,21.78,25.27,33.76,37.18a103.59,103.59,0,0,1,30.06,66.17"/><path class="cls-12" d="M169.34,115c24.31-1.62,50.7,9.33,64.71,29.27,4.86,6.92,7.62,15.06,10.32,23.08l15.51,46.12c4.73,14.05,9.49,28.31,10.41,43.11,1,15.61-2.3,32,3.58,46.47,6.36,15.65,21.78,25.27,33.76,37.18a103.59,103.59,0,0,1,30.06,66.17"/><path class="cls-12" d="M187.27,74.41c24.31-1.62,51.89,3.23,65.9,23.17,4.86,6.92,7.62,15.06,10.32,23.08L279,166.77c4.73,14.05,9.49,28.31,10.41,43.11,1,15.61-2.3,32,3.58,46.47,6.36,15.65,15.22,44.26,27.2,56.17C337.77,330,362.68,364,364.26,388.73"/><path class="cls-12" d="M145.32,111.4c-5.59,4.81-14.95,4.38-19.19,10.42-1.46,2.08-2.05,4.63-2.75,7.08-4.06,14.19-12.76,26.89-15.43,41.4-2.13,11.57-.26,23.45,1.61,35.07,1.9,11.82,3.82,23.72,7.82,35,4.92,13.88,13,26.75,15.66,41.23a102.41,102.41,0,0,1,1.28,19.57c-.05,7.57-.32,15.2-2.07,22.57-1.87,7.86-5.39,15.22-8.88,22.51L93.84,407.91"/><path class="cls-12" d="M160.89,80.91c-9.1,1.4-19.26-2.39-27.16,2.35-10.51,6.3-13.92,25.3-17.5,35.93a389.33,389.33,0,0,0-12.5,46.56"/><path class="cls-12" d="M112.26,244.82c-2.07,16.71,8.36,32.26,11.16,48.86,4,23.58-7.65,46.89-20.85,66.83s-28.7,39.35-34,62.68"/><path class="cls-12" d="M159.36,90.65c-4.79-.85-9.7.21-14.35,1.65a17.3,17.3,0,0,0-6,2.86,19.18,19.18,0,0,0-3.94,5.15l-12.79,21.36a74.38,74.38,0,0,0-5.43,10.25,37.3,37.3,0,0,0-2.66,15.56"/><path class="cls-12" d="M134.18,258.23c-1,5.77,1.49,11.56,4.48,16.58s6.64,9.75,8.51,15.29a26.59,26.59,0,0,1-2.53,22.15c-1.62,2.63-3.71,5-5.18,7.67-3.31,6.08-3.27,13.35-3.14,20.27"/><path class="cls-12" d="M221.48,148.42c4.25,11.59,14.57,19.92,20.1,31a83,83,0,0,1,5.22,14.87L252,212.75c3,10.7,6,21.46,7.25,32.52,1.68,15.43.11,32.25,8.71,45.16"/></svg>