<svg xmlns="http://www.w3.org/2000/svg" viewBox="0 0 415.62 406.69"><defs><style>.cls-1{fill:#302420;}.cls-2{fill:#42312c;}.cls-3,.cls-6{fill:#b28779;}.cls-10,.cls-3,.cls-4,.cls-5,.cls-6,.cls-8,.cls-9{stroke:#000;}.cls-10,.cls-14,.cls-3,.cls-4,.cls-5,.cls-6,.cls-7,.cls-8,.cls-9{stroke-miterlimit:10;}.cls-3,.cls-4,.cls-5,.cls-8,.cls-9{stroke-width:0.25px;}.cls-12,.cls-4{fill:#c69685;}.cls-10,.cls-14,.cls-5,.cls-7{fill:none;}.cls-6,.cls-7{stroke-width:0.5px;}.cls-7{stroke:#161535;}.cls-8{fill:#755950;}.cls-9{fill:#9b7467;}.cls-10{stroke-width:0.15px;}.cls-11{fill:#16437c;}.cls-13{fill:#1b528e;}.cls-14{stroke:#933718;}.cls-15{fill:#025e94;}.cls-16{fill:#03547c;}</style></defs><title>youngma</title><g id="Young_MA" data-name="Young MA"><path class="cls-1" d="M174.72,128.28l-6.06,20.6s-13-9.89-15.44-10.75a10.31,10.31,0,0,1-4.17-3.39Z"/><path class="cls-1" d="M148,174.44c-2.52,11.73-4.4,5.52-7.68,8.62-5,4.72-1,5.8-1.73,10.07s-2.42,3.86-.27,9.13-3.94,8.45-2.15,11.5-1,6.07-.33,8.27-2.89,3.9-2.53,6.45-.77.1,0,4.58-5.75,5.41-4.11,9.74-1.44,2.48-.26,6.81-1.73,10.78-.28,12.2-2.29,3-.42,6.07.28,9-.54,11.44-3,3.37-2.6,5.25-3.71,3.58-2.87,9.59-4.76,30.71.25,31.54,5.48-11.23,8.7-18.44,5-3.18,3.22-7.21-4.93-3.09-1-8.66-3.18-1.86,0-5-1.39-4.33,0-6.19-.4,1.86,1.39-1.86.32-6.34,3.85-9.44-3.14-4.48-2.78-9.12-3.58-.24.72-7.24,7.89-7.4,6.09-12.93-1.07-4.33,0-9.11,1.69-3.61,1.92-8.53-3.09-3,0-8.27,2.41-3.45,3.47-9.94a86,86,0,0,1,1.84-9.14s7.82-9.94,6.92-13.94S148,174.44,148,174.44Z"/><path class="cls-1" d="M159.15,191.89c.64-7.46-6.12,14.23-9.41,17.32-5,4.72-1,5.8-1.73,10.07s-2.42,3.86-.27,9.13-3.94,8.45-2.15,11.5-1,6.07-.33,8.27-2.89,3.9-2.53,6.45-.77.1,0,4.58-4,17-2.33,21.38-3.62-1.08-2.44,3.25-1.34,2.7.12,4.12-2.29,3-.42,6.07.28,9-.54,11.44-3,3.37-2.6,5.25-3.71,3.58-2.87,9.59-2.68,19.27,2.33,20.11,3.4.21,6.62-7-2-1.46,3.22-7.21c3-3.26-4.93-3.09-1-8.66s-3.18-1.86,0-5-1.39-4.33,0-6.19-.4,1.86,1.39-1.86.32-6.34,3.85-9.44-3.14-4.48-2.78-9.12-3.58-.24.72-7.24,7.89-7.4,6.09-12.93-1.07-4.33,0-9.11,1.69-3.61,1.92-8.53-3.09-3,0-8.27,2.41-3.45,3.47-9.94a86,86,0,0,1,1.84-9.14s7.82-9.94,6.92-13.94S159.15,191.89,159.15,191.89Z"/><path class="cls-1" d="M298.68,223.24c-1.48-7.34-8.19,17.21-4.17,19.26,6.13,3.13.66,5.85,1.16,10.15s-1.24,4.38,2.3,8.84-5.8,12.9-3.22,15.32,5.1,2.43,6.38,4.36-4.31,9.35-3.25,11.7,2.38,3.09,4.35,7.18.52,9.9,3.31,13.6-3.78,0-1.43,3.8,2.6,5,4.39,5.91-3.93,8.13-1.27,10.57.09,3.3,0,5.91.24,2.68,1.11,4.38-2.56,4.48-.06,10,2.83,19.25,7.87,18.65,3.32-.75,4.4-8.58-2.32-.84,1.07-7.82c1.92-4-5.6-1.59-3.42-8s-3.57-.89-1.39-4.75-2.55-3.77-1.74-5.94.13,1.9.81-2.17-1.47-6.17,1.05-10.14,1.38-3.08.42-7.64-2-.63.17-8.56-1.67-8.25-4.94-13-2.24-3.86-2.55-8.74.61-3.94-.55-8.72-3.8-2-2.32-7.94,1.34-4,.54-10.52a86,86,0,0,1-.8-9.29s4.72-11.73,2.74-15.32S298.68,223.24,298.68,223.24Z"/><path class="cls-2" d="M134.49,169.09c.64-7.46-6.12,14.23-9.41,17.32-5,4.72-1,5.8-1.73,10.07s-2.42,3.86-.27,9.13-3.94,8.45-2.15,11.5-1,6.07-.33,8.27-2.89,3.9-2.53,6.45-.77.1,0,4.58-4,17-2.33,21.38-3.62-1.08-2.44,3.25-1.34,2.7.12,4.12-2.29,3-.42,6.07.28,9-.54,11.44-3,3.37-2.6,5.25-3.71,3.58-2.87,9.59-2.68,19.27,2.33,20.11,3.4.21,6.62-7-2-1.46,3.22-7.21c3-3.26-4.93-3.09-1-8.66s-3.18-1.86,0-5-1.39-4.33,0-6.19-.4,1.86,1.39-1.86.32-6.34,3.85-9.44.36-2.12.72-6.77-4.05-2.63.24-9.63,4.87-7.37,3.07-12.89-1.07-4.33,0-9.11,1.69-3.61,1.92-8.53-3.09-3,0-8.27,2.41-3.45,3.47-9.94a86,86,0,0,1,1.84-9.14s7.82-9.94,6.92-13.94S134.49,169.09,134.49,169.09Z"/><path class="cls-2" d="M140.65,161.34c-1.48-7.34-8.19,17.21-4.17,19.26,6.13,3.13.66,5.85,1.16,10.15s-1.24,4.38,2.3,8.84-5.8,12.9-3.22,15.32,5.1,2.43,6.38,4.36-4.31,9.35-3.25,11.7,2.38,3.09,4.35,7.18.52,9.9,3.31,13.6-3.78,0-1.43,3.8,2.6,5,4.39,5.91-3.93,8.13-1.27,10.57.09,3.3,0,5.91.24,2.68,1.11,4.38-2.56,4.48-.06,10,2.83,19.25,7.87,18.65,3.32-.75,4.4-8.58-2.32-.84,1.07-7.82c1.92-4-5.6-1.59-3.42-8s-3.57-.89-1.39-4.75-2.55-3.77-1.74-5.94.13,1.9.81-2.17-1.47-6.17,1.05-10.14,1.38-3.08.42-7.64-2-.63.17-8.56-1.67-8.25-4.94-13-2.24-3.86-2.55-8.74.61-3.94-.55-8.72-3.8-2-2.32-7.94,1.34-4,.54-10.52a86,86,0,0,1-.8-9.29s4.72-11.73,2.74-15.32S140.65,161.34,140.65,161.34Z"/><path class="cls-1" d="M141.79,135.24c-2.18,11.73-5,14.67-3,16.6s-1,.52-1.66,4.79-5.58,1.15-3.72,6.42-3.4,8.45-1.86,11.5-.89,6.07-.29,8.27-2.5,3.9-2.19,6.45-.66.1,0,4.58-5,5.41-3.55,9.74-1.25,2.48-.23,6.81-1.5,10.78-.24,12.2-2,3-.36,6.07.24,9-.46,11.44-2.56,3.37-2.25,5.25-3.21,3.58-2.48,9.59-5.88,12.27-1.55,13.11,6.5,7.21,9.28,0,4.33-3.18,2.79-7.21-4.26-3.09-.89-8.66-2.75-1.86,0-5-1.2-4.33,0-6.19-.35,1.86,1.2-1.86-4.26-7.41-1.2-10.51,1.82-3.41,2.13-8.05-3.09-.24.62-7.24,6.82-7.4,5.27-12.93-.92-4.33,0-9.11,1.46-3.61,1.66-8.53-2.67-3,0-8.27,2.08-3.45,3-9.94,1.59-9.14,1.59-9.14,6.75-9.94,6-13.94S141.79,135.24,141.79,135.24Z"/><path class="cls-2" d="M304.23,201.57c-1.48-7.34-9,8.91-5,11,6.13,3.13.66,5.85,1.16,10.15s-1.24,4.38,2.3,8.84-5.8,12.9-3.22,15.32,4.11,6.91,5.39,8.84-3.32,4.87-2.26,7.22-1.6,11.88.37,16,4.5,1.1,7.28,4.81-3.78,0-1.43,3.8,2.6,5,4.39,5.91-3.93,8.13-1.27,10.57.09,3.3,0,5.91.24,2.68,1.11,4.38,3.11,11.27,5.61,16.8-6,12.53-1,11.93,9.67,2.31,10.75-5.51-5.49-4-2.1-11c1.92-4-3.29,1.08-1.11-5.36s-3.3-2-1.12-5.86-1.21-3.25-.4-5.42-3.79-.18-3.11-4.25-1.47-6.17,1.05-10.14,1.38-3.08.42-7.64-2-.63.17-8.56-1.67-8.25-4.94-13-2.24-3.86-2.55-8.74.61-3.94-.55-8.72-2.64,1.18-1.16-4.78.18-7.15-.62-13.68a86,86,0,0,1-.8-9.29s4.72-11.73,2.74-15.32S304.23,201.57,304.23,201.57Z"/><path class="cls-2" d="M285.22,241.23c-1.48-7.34-9,8.91-5,11,6.13,3.13.66,5.85,1.16,10.15s-1.24,4.38,2.3,8.84-5.8,12.9-3.22,15.32,4.11,6.91,5.39,8.84-3.32,4.87-2.26,7.22-1.6,11.88.37,16,4.5,1.1,7.28,4.81-3.78,0-1.43,3.8,2.6,5,4.39,5.91-3.93,8.13-1.27,10.57.09,3.3,0,5.91.24,2.68,1.11,4.38,3.11,11.27,5.61,16.8-6,12.53-1,11.93,9.67,2.31,10.75-5.51-5.49-4-2.1-11c1.92-4-3.29,1.08-1.11-5.36s-3.3-2-1.12-5.86-1.21-3.25-.4-5.42-3.79-.18-3.11-4.25-1.47-6.17,1.05-10.14,1.38-3.08.42-7.64-2-.63.17-8.56-1.67-8.25-4.94-13-2.24-3.86-2.55-8.74.61-3.94-.55-8.72-2.64,1.18-1.16-4.78.18-7.15-.62-13.68a86,86,0,0,1-.8-9.29s4.72-11.73,2.74-15.32S285.22,241.23,285.22,241.23Z"/><path class="cls-3" d="M161.39,193.13s1.22,14.13,0,26.05-.33,20.32-2.1,25.17-21.2,14.13-21.2,14.13-5.3,10.16,0,15S177,297.35,177,297.35s16.34,7.51,32.68,5.74,12.37,1.77,28.27-4.86,20.76-6.62,31.8-12.37l11-5.74-8.51-15.27s-7.8.77-19.72,1.66S216,256.63,216,256.63l-11.23-53.85Z"/><path class="cls-4" d="M167.63,194.24s3.89,26.21,10.49,34.14,12.28,15.33,19,19.83,19.1,11.63,26,14.54,29.08,8.19,31.46,8.19,12.69-2.11,17.71-6.08,11.63-10.57,13.48-12.16,8.52-11.37,8.52-11.37,7.87-13.22,10.25-17.71,8.19-19,8.72-23.53,3.4-10.84,2.36-17.45S312.68,165,312.68,165s.79.24.53-6.66-2.2-5.91.62-13.94-3-19.88-3-19.88l-3.24-17.22s1.39-1.85-9.19-4.76-47.32-3.17-47.32-3.17-25.64-2.11-29.34,0-25.64.53-32.25,6.61-11.63,14-13,17.45-8.91,25.44-8.91,25.44"/><path d="M245.43,152.42s-4.73-5.26-7-6.59a14.26,14.26,0,0,0-6.55-1.4c-.59.07-6.92,1-7.44,1.18s-6.55,2.45-7.22,2.81-1.77,1.09-2.14,1.32.88.74.88.74,6.41.74,7.73,1,6.48.52,7,.66,7.66.33,7.66.33Z"/><path class="cls-5" d="M244.89,147.45a16.68,16.68,0,0,0-2.8-3c-1.1-.72-7.73-2.93-9.79-2.86a50.59,50.59,0,0,0-8,.74c-1.4.44-6.48,1.22-7.8,2.12s-3.68,2.67-3.68,2.67"/><path d="M280.88,156.28s7.68,1.11,9.37,1.22,11.29,1.16,12.45.76a44.46,44.46,0,0,1,4.89-.94,10.78,10.78,0,0,0-2.91-3.42,16,16,0,0,0-5.76-2.79c-.76,0-6.34.58-6.34.58a30,30,0,0,0-3.61.93c-1,.41-6.17,1.86-6.17,1.86Z"/><path class="cls-5" d="M279.42,153.86s6.2-4,8.77-4.45a34.29,34.29,0,0,1,8-.44,72.18,72.18,0,0,1,7.29,1.48,18.81,18.81,0,0,1,4.13,2.88s1.37,1.83,1.59,2.23"/><path class="cls-1" d="M255.24,139.19s-4.95-.71-9.39-1.72-9.61-2.46-12.11-3.23c-2.73-.84-7.27-1.92-8.93-2.2a29.19,29.19,0,0,0-12.63.42l-11.35,5s-4,0-3.73-1.92,4.14-3.73,4.14-3.73l10.28-5.08a33.73,33.73,0,0,1,8.5-2.19c4-.34,16.15,3.63,18.17,3.73s17.06,4.64,17.06,4.64,2.52,1.41,2.12,3.33A4.9,4.9,0,0,1,255.24,139.19Z"/><path class="cls-1" d="M288.06,142.64a23.87,23.87,0,0,0,9,0c4.77-1,10.36-2.67,12.15-2.29s4.65,4.06,4.65,4.06,2.48-2.45,1.53-4.12-3.63-5.1-3.63-5.1a2.52,2.52,0,0,0-2.55-1.14,58.24,58.24,0,0,0-7.36.76c-2.49.57-8.22.19-9.75.76a9.71,9.71,0,0,0-1.48.75,5.21,5.21,0,0,0-2.53,4.47Z"/><path class="cls-6" d="M167.63,148.88s-3.87-9.27-11.61-12-12.37.52-13.48,2.34-2.22,10.92-2.22,10.92,1.33,11.53,1.33,13.53,0,8,1.33,10.2,4.44,5.77,5.54,7.76,9.54,10.42,12.86,11.53a22,22,0,0,0,6.24,1.11Z"/><path class="cls-7" d="M185.78,256.58l.26-1.23a15.22,15.22,0,0,1,4.39-.39c.95,0,2.1.14,2.48,1a1.73,1.73,0,0,1-1.35,2.14,5,5,0,0,1-2.81-.44,13.2,13.2,0,0,1-3.74-1.83"/><path class="cls-7" d="M187.67,251.55c4.05-.8,10,2.19,10.59,6.28.16,1.08,2.48,8.91-2.64,2.94-.3-.35-.92.12-1.38.07l-7.4-.8c-1.44-.15-3-.27-4.18.62s-1.48,2.78-1.42,4.38.28,3.29-.46,4.71-2.91,2.18-3.92.94c.24,2.07-.66,4.1-.82,6.18s1,4.63,3.07,4.64a3.34,3.34,0,0,0,2.38-1.18,3.55,3.55,0,0,0,1-3.1,2.23,2.23,0,0,0-2.49-1.74c-.52-1.28.85-2.54,2.14-3a6.26,6.26,0,0,1,5.59.21c1.63,1,2.35,3.53,1.12,5-.76.93-2,1.28-3,2a6.41,6.41,0,0,0-2,3.47,4.74,4.74,0,0,0,.26,3.75c.7,1.08,2.49,1.46,3.27.43.17,2.15-1.55,4.09-3.55,4.9-4.24,1.73-9.35-.72-11.77-4.61s-2.66-8.78-2-13.32a20.25,20.25,0,0,1,2.39-7.53,14.31,14.31,0,0,0,1.37-2.49c.61-1.73.15-3.63-.3-5.41l4,.68c1-1.19.22-3-.2-4.49-.59-2.14-2.62-2.71-3.41-5-.47-1.35-2-4.72-2.06-6.61-.28-6.15,3-3.19,3-2.16,0,6.68-.9,11.68,7.3,11.83C184.08,252.94,185.77,251.93,187.67,251.55Z"/><path class="cls-7" d="M194.14,278c-.24,1.1-.36,2.41.45,3.19a2.12,2.12,0,0,0,2.7,0,3.2,3.2,0,0,0,1.08-2.63,2.55,2.55,0,0,0-.89-2,1.43,1.43,0,0,0-2,.22c-.27.41-.48,1.1-.94.95a4.34,4.34,0,0,1,4.54-4.58,1.38,1.38,0,0,1,.79.28,1.47,1.47,0,0,1,.36.6c1.24,3.22-.17,6.8-1.56,10-1.19,2.7-2.56,5.6-5.17,7a2.54,2.54,0,0,1-1.54.35,2.51,2.51,0,0,1-1.73-1.71c-.76-2-.4-4.17,0-6.24.59-3.26,1.24-6.66,3.25-9.29a3.67,3.67,0,0,1,2.28-1.59c.94-.12,2,.64,1.9,1.58"/><path class="cls-7" d="M199.37,292.41c.09,1.48.43,3.16,1.7,3.93,1.76,1.05,4-.33,5.32-1.89a2.85,2.85,0,0,0,.47,3.36,2.4,2.4,0,0,0,3.27-.06c1.79-2-.85-5.69,1-7.56,1-1,2.74-.76,3.93-1.54,1.38-.9,1.6-2.87,1.15-4.45s-1.4-3-1.9-4.54a12.93,12.93,0,0,1,.36-7.66,5.15,5.15,0,0,1,1.49-2.62,2,2,0,0,1,2.75.09,7.21,7.21,0,0,0-9.17-1.77l1.5,10.36c.26,1.77.39,3.89-1,5-2.6,2.13-6.9.18-6.19,5.29.47,3.38,3.93,4.26,4.7.67.6-2.77-2.8-9.77-6.4-8.53C199,281.66,199.21,289.71,199.37,292.41Z"/><path class="cls-7" d="M223.65,278.93a1,1,0,0,0,.11-.51.65.65,0,0,0-.94-.36,1.56,1.56,0,0,0-.65,1,8,8,0,0,0-.23,3.43c.43,3.39,2.22,6.49,2.63,9.88a12.32,12.32,0,0,1-.17,4,5.42,5.42,0,0,1-1.41,2.9c-1.28,1.21-3.24,1.26-5,1.23a4.75,4.75,0,0,1-2.4-.46,1.64,1.64,0,0,1-.73-2.1c2.23.27,4.2-1.33,5.87-2.84-.44,1.66-2.12,2.61-3.65,3.38a5.06,5.06,0,0,0,3.38-.64c1.76-1.18,2-3.62,2.12-5.75a2.76,2.76,0,0,0-2.23.34,13,13,0,0,0-1.82,1.44c-1,.81-5,3.8-6.2,2.88,1.7-3,4.25-5.64,6.17-8.52A58.09,58.09,0,0,0,223.65,278.93Z"/><path class="cls-7" d="M243.34,273.75a4.43,4.43,0,0,0-2.83,3.75l3.33-1.51c.56-.25,1.2-.66,1-1.24a2.51,2.51,0,0,0-1.56-.47"/><path class="cls-7" d="M248,272.65a1.38,1.38,0,0,0,.21-1.41c-.5-.87-1.93-.6-2.77-.13-3.05,1.71-5.6,4-8.65,5.71a14.75,14.75,0,0,1-10.68,1.88,1.57,1.57,0,0,1-.86-.43,1.08,1.08,0,0,1-.15-.87,10,10,0,0,1,1.41-3.85l-1.7,4.42a1.51,1.51,0,0,0-.14,1,2,2,0,0,0,.86,1,10.7,10.7,0,0,0,5.48,1.88,16.29,16.29,0,0,0-1.91,10.38,12.48,12.48,0,0,0,2.09,5.65,9.19,9.19,0,0,0,5.39,3.66c2.2.46,4.59-.24,5.51-1.88a33.92,33.92,0,0,1-1.87,5.38,3.92,3.92,0,0,1-.92,1.43,5.36,5.36,0,0,1-2.44.94c-3.62.76-7.53,1.5-11.27.23-2.59-.88-5-2.7-7.66-2.68a8.35,8.35,0,0,0-4.07,1.34,29.43,29.43,0,0,0-8.54,7.27,17.75,17.75,0,0,1,7-2.9,22.8,22.8,0,0,1,7-.68c5.16.43,9.94,3.37,15,4.64a9.2,9.2,0,0,0,4.78.17c2-.62,3.13-2.36,4-4.05,3.18-6.4,4.27-13.62,5.06-20.79a.92.92,0,0,0-.12-.7c-.33-.43-1-.28-1.52-.11a17.48,17.48,0,0,1-9.79.47l.32-1.23c1,.4,1.44,1.49,2,2.35s1.95,1.66,2.64,1c-.36,1.64-.77,3.36-2,4.53a4.26,4.26,0,0,1-5.25.29c-1.74-1.39-1.34-3.7-.75-5.49q1.1-3.29,2.33-6.52c.63-1.64,1-3.38,2.69-4.27C242.67,278.23,245.88,276.29,248,272.65Z"/><path class="cls-7" d="M253.23,288.33a1.42,1.42,0,0,1,.32-.85,1.68,1.68,0,0,1,.67-.33l3.91-1.24L254,294.37a2.81,2.81,0,0,0-.39,1.32c.06,1.52,2.18,2.44,3.89,2.93a54.33,54.33,0,0,0,7.12-14.31,3.36,3.36,0,0,0,.23-1.67,1.75,1.75,0,0,0-1.22-1.35c.6-.9,2.52-.11,2.86,1s-.29,2.12-.82,3.05a22.18,22.18,0,0,0-2.59,14.44,5.26,5.26,0,0,0,.94,2.56,4,4,0,0,0,3.28,1.44,2.74,2.74,0,0,0,2.51-1.85,1.44,1.44,0,0,0,0-1,2.86,2.86,0,0,0-.93-1l-3.46-2.63a86.51,86.51,0,0,1,7.62,4.88,3.2,3.2,0,0,1,1.19,1.23,1.88,1.88,0,0,1-.05,1.32,3.78,3.78,0,0,1-3.7,2.71,7.63,7.63,0,0,1-3.67-1.67c-2-1.37-4-2.83-5.11-4.78-.3-.54-.64-1.2-1.29-1.33s-1.22.5-1.65,1a4.66,4.66,0,0,1-5.08.94c-1.78-.73-3-2.63-2.52-4.19-.18.61-1.05,1.81-1.92.89-.58-.61,1-2.25,1.26-2.79A20.8,20.8,0,0,0,253.23,288.33Z"/><path class="cls-7" d="M272.38,280.37a2.61,2.61,0,0,0-.88-2.32,3.26,3.26,0,0,0-2.7-.13,29.61,29.61,0,0,0-7.16,3,5.31,5.31,0,0,1,3.11-3.61,20.27,20.27,0,0,1,5.15-1.47,5.31,5.31,0,0,1,2.83,0,3.38,3.38,0,0,1,2.06,2.44,6.63,6.63,0,0,1-.21,2.94c-1.22,5.2-2.9,10.25-4.58,15.3-.59,1.76-2,1.32-1.3-.51.62-1.68,1.46-3.26,2-5A36,36,0,0,0,272.38,280.37Z"/><path class="cls-7" d="M257.68,279.13a.65.65,0,0,0-.8-.17,1.21,1.21,0,0,0-.49.59l-1.33,2.65a1.82,1.82,0,0,0-.16,1.88,1.89,1.89,0,0,0,2,.57,3.29,3.29,0,0,0,1.53-1.26,2.35,2.35,0,0,0,.65-2.07,2.32,2.32,0,0,0-.46-.77,4.65,4.65,0,0,0-4.5-1.45"/><path class="cls-5" d="M158.16,157s-2.37-1.79-5,1.35-3.68,4.86-1.86,7.21,5.24,2.89,6.85,4.92,1.61,4,3.32,4,1.71,0,1.71-1a14.4,14.4,0,0,0-.45-2.67s-2.3-3.84-2.44-5.8,2.44-6.66,2.44-6.66-4.26-7.33-5.65-9.48-2.89-5.54-6.21-7.32-4.71-1.78-5.35-1.14-1.93,4.71-1.93,6.42v8.72"/><path class="cls-5" d="M150.67,145.45a68.47,68.47,0,0,1-1.82,8.13c-.86,2.35-2,3.53-1.93,6.42s-1.71,6.42.43,8.88a33.12,33.12,0,0,0,5.46,4.71"/><path class="cls-8" d="M240.12,219.42s10.94-6,13.19-7.05,6.24-3.78,10.63-3.27a14.2,14.2,0,0,1,6.64,2.25,16.34,16.34,0,0,1,3.78-1.53c1.12-.1,3.37-.72,4.8-.1s7,6.75,7,6.75,1.64,2.35,2.35,3.58a13.55,13.55,0,0,1,1.12,3.48l-5.52-2.25s-12.17-3-15.74-2.76-16.56.1-18.61.51A93.47,93.47,0,0,1,240.12,219.42Z"/><path class="cls-9" d="M240.12,219.42s.41,1,2.76,2.66,16.87,9.2,21.37,9.41,11.14,0,12.88-.61,9.2-5.38,9.2-5.38l3.27-2s-11.86-2.35-17.17-2.76-11-.51-16.36-.61S240.12,219.42,240.12,219.42Z"/><path class="cls-5" d="M257.76,192.19s-2.54.09-3.07-1.05,1.3-2.8,1.3-2.8.41-.7,2.9-.7c2.31,0,2.1-.6,4.73,2.46s3.13,5,5.25,5.51a8.58,8.58,0,0,0,5.25,0c1.31-.53,3.42-3.17,5.08-3.69s3-1.74,4.12-.87.88,1.84,0,2.71-3.77,3-3.77,3"/><path class="cls-5" d="M251.49,177.44a6.83,6.83,0,0,0-2.51,3.33c-1.14,2.6-2.43,4.95-2,7.38s1.95,4.87,2.84,5.35,2.6,1.78,4.54,1.54a18.73,18.73,0,0,0,4-1.05"/><path class="cls-5" d="M281.83,172.74a62.16,62.16,0,0,0,4.38,6.73,16,16,0,0,1,2.84,5.19c.16.81,1.14,3.65.81,5.11a26,26,0,0,1-3.33,6.73,13.2,13.2,0,0,1-2.76,2.19"/><path class="cls-10" d="M260.6,155.56a25.55,25.55,0,0,1-2.3,9.45"/><path class="cls-10" d="M274.28,157.23s0,6.28,1.32,8.7"/><path class="cls-10" d="M245.4,189.89s-8.95,13.31-10.56,18.7"/><path class="cls-10" d="M294.06,219.42s.23-12.94-4.23-19.87"/><path class="cls-11" d="M138.73,138.12l36.22-8.42s4.64.24,22.14-12.57c24.22-17.74,74.83-27,77.2-16.29,0,0,26.54,4.56,33.69,8.33s6.07,3.1,6.07,3.1a172.6,172.6,0,0,0-3.41-28.59c-1.91-9.37-3-20-10.41-30.28-7.12-9.94-19.82-18-30.55-21.54-16.59-5.43-44-6.37-58.47-5-16.08,1.51-26-.42-45.16,18S146.32,69.46,142,82s-8.51,27.14-7.87,34.24S138.73,138.12,138.73,138.12Z"/><path class="cls-12" d="M224,88.13s25.82-.14,32.67,0S286,90.69,289,90.78s11.51,1.87,11.51,1.87V90.78s-1-1.61-6.8-3.86S281.91,80.59,276,80.73s-9-2.74-16.17-1.51-12.61-1.85-22.06-.31S225,80.32,225,80.32Z"/><path class="cls-1" d="M224.08,81.5s22.23-1.07,35.38,0S277,81.14,285.88,84s12.77,5.35,12.77,5.35l3.17,1.43s1.83-2.38-2.1-9.75-2.45-6.55-9.62-14.57S279.23,56,268.4,52.35c-9.87-3.29-10.31-5.66-23.51-2.45s-13.21,5.84-14.68,7.7C223.1,66.59,224.08,81.5,224.08,81.5Z"/><path class="cls-13" d="M220.55,88.91v14.22s3.37-1.69,21.93,0,49.71,2.17,58.35,5.3,16.1,9.64,19,9.64,8.19,4.1,8.19,4.1l-2.41-12.53-7-7.47-1-5.54s-12.77-2.81-21.12-6-28.6-1.7-28.6-1.7-33.63-1.64-40.51-.82Z"/><polygon class="cls-14" points="296.53 90.61 294.3 106.99 307.98 109.17 309.18 94.54 296.53 90.61"/><path class="cls-15" d="M138.1,258.49S93.51,269,81,276.3,19.55,305.4,19.55,305.4s-3.83,1.74-9,11.13-10.5,31-10.5,31l-1.57,65.27,417.19-6.07,1-45.54s.26-27.09-6.7-37.53-23.46-25.47-34.18-30.83c-9.46-4.73-85.28-20.84-89.89-17.93s-6.54,8.5-31.27,17.2-46.93,12.25-64,7-27.67-12-33.93-16.54S138.1,258.49,138.1,258.49Z"/><path class="cls-16" d="M122.46,258.28s8.82,26.12,16.59,32.47,44.83,22.94,57.18,23.3,53.35,4.59,64.44,0,32.5-26.82,32.5-26.82l-2.82-13.47-12.23,2.88a35.49,35.49,0,0,1-21.27,14.63c-14.32,3.18-49.68,10.56-61.68,7.85s-35.48-12.24-40-17.89-15.47-23.38-15.47-23.38Z"/></g></svg>